PathFileType	4	(X/Y/Z)	C:\Users\Basilio\Documents\Thesis Gigler\squatting_fais\c3dfiles\019\SLS_back_pre3\markers_experimental.trc
DataRate	CameraRate	NumFrames	NumMarkers	Units	OrigDataRate	OrigDataStartFrame	OrigNumFrames
200.000000	200.000000	4	59	mm	200.000000	776	1552
Frame#	Time	LBHD			RBHD			C7			T10			CLAV			LSHO			LUUPA			LMUPA			LDUPA			LLEP			LMEP			LRAD			LUL			LRFIN			RSHO			RUPA1			RMUPA			RDUPA			RLEP			RMEP			RRAD			RUL			RUFIN			LASI			RASI			USACR			LSACR			RSACR			LTHI1			LTHI2			LTHI3			LTHI4			LLFC			LTIB1			LTIB2			LTIB3			LTIB4			LLMAL			LMMAL			LHEE			LMT2			LMT5			RTHI			RTHI2			RTHI4			RLFC			RTIB1			RTIB2			RTIB3			RTIB4			RLMAL			RMMAL			RHEE			RMT1			RMT2			RMT5			FHD			LMT1			RTHI3			
		X1	Y1	Z1	X2	Y2	Z2	X3	Y3	Z3	X4	Y4	Z4	X5	Y5	Z5	X6	Y6	Z6	X7	Y7	Z7	X8	Y8	Z8	X9	Y9	Z9	X10	Y10	Z10	X11	Y11	Z11	X12	Y12	Z12	X13	Y13	Z13	X14	Y14	Z14	X15	Y15	Z15	X16	Y16	Z16	X17	Y17	Z17	X18	Y18	Z18	X19	Y19	Z19	X20	Y20	Z20	X21	Y21	Z21	X22	Y22	Z22	X23	Y23	Z23	X24	Y24	Z24	X25	Y25	Z25	X26	Y26	Z26	X27	Y27	Z27	X28	Y28	Z28	X29	Y29	Z29	X30	Y30	Z30	X31	Y31	Z31	X32	Y32	Z32	X33	Y33	Z33	X34	Y34	Z34	X35	Y35	Z35	X36	Y36	Z36	X37	Y37	Z37	X38	Y38	Z38	X39	Y39	Z39	X40	Y40	Z40	X41	Y41	Z41	X42	Y42	Z42	X43	Y43	Z43	X44	Y44	Z44	X45	Y45	Z45	X46	Y46	Z46	X47	Y47	Z47	X48	Y48	Z48	X49	Y49	Z49	X50	Y50	Z50	X51	Y51	Z51	X52	Y52	Z52	X53	Y53	Z53	X54	Y54	Z54	X55	Y55	Z55	X56	Y56	Z56	X57	Y57	Z57	X58	Y58	Z58	X59	Y59	Z59	

777	3.88	-169.2248840332032	1341.491577148438	-773.9445800781252	-171.7247924804688	1336.07666015625	-633.7496337890626	-221.9651947021485	1209.168334960938	-696.1253051757814	-392.7092285156251	989.7130126953127	-709.4522705078126	-111.1439285278321	1114.158569335938	-698.9915161132814	-140.4155883789063	1194.821166992188	-826.5229492187502	-25.21002197265626	1157.718994140625	-883.5970458984377	-0.5751329064369203	1147.428833007813	-842.6560668945315	39.79895019531251	1148.235107421875	-887.5711059570315	108.4672393798828	1109.818115234375	-919.9793090820315	101.498764038086	1052.862670898438	-905.7036132812502	347.5358276367188	1128.709106445313	-839.1047363281252	355.4336853027344	1078.79345703125	-880.4890136718752	420.9856567382814	1146.346069335938	-843.3255004882815	-136.6197967529297	1187.244995117188	-586.7503051757814	-34.55715942382813	1115.173461914063	-478.9101562500001	-6.099493503570558	1139.9794921875	-511.910858154297	32.90791320800782	1104.7900390625	-480.9176025390626	110.0246276855469	1089.07861328125	-493.2790527343751	96.28239440917972	1035.815307617188	-508.3716125488282	345.1404724121094	1125.588745117188	-571.6277465820314	363.5432128906251	1078.739135742188	-524.3464355468751	429.8599243164064	1139.806884765625	-560.9250488281251	-390.1968994140626	743.7716064453126	-834.743347167969	-366.5717163085938	747.0614624023439	-634.1554565429689	-476.7202758789064	880.414001464844	-722.2222290039064	-505.6329345703126	858.412536621094	-751.5694580078126	-497.3876342773439	854.5745849609377	-691.1174316406251	-476.3112792968751	521.2307739257814	-928.9948730468752	-431.9993286132814	447.3565979003907	-936.565612792969	-389.7719116210939	448.1481018066407	-916.5549316406252	-456.9985351562501	390.3890075683595	-934.7309570312502	-468.3917541503907	312.4403076171876	-923.924987792969	-579.9007568359376	231.1598510742188	-895.3709716796877	-623.9398803710939	290.3630065917969	-955.977233886719	-627.5020141601564	254.6906890869141	-931.9486083984377	-707.3707885742189	254.1410369873047	-899.3074340820315	-837.7341308593752	327.1483459472657	-933.288024902344	-829.0346679687502	310.2270507812501	-849.084411621094	-877.9885864257815	388.5054931640626	-883.6627197265627	-906.3481445312502	175.0341796875	-901.2385253906252	-929.0181884765627	217.9010009765626	-952.3383789062502	-377.5720825195313	622.8312377929689	-551.6479492187501	-313.2450256347657	618.6127929687501	-565.5126342773439	-268.2085266113282	548.8323364257814	-570.0468750000001	-185.2695617675782	428.2622375488282	-621.5210571289064	-204.993392944336	272.2492370605469	-710.0962524414064	-284.5314941406251	214.3529815673829	-656.7274169921876	-256.7778930664063	200.2220611572266	-695.6456909179689	-289.3630676269532	182.7184143066407	-741.1072998046876	-378.7568969726563	122.8048171997071	-696.1835327148439	-363.9804382324219	136.1444702148438	-773.4401855468752	-457.3878173828126	106.9897155761719	-753.4089355468751	-257.1260681152344	58.29935836791994	-782.5784912109377	-247.4953918457032	57.34694290161134	-734.5533447265626	-292.3769531250001	46.06333923339844	-682.7872924804689	-40.88717651367188	1378.253051757813	-631.5878906250001	-904.7501220703127	176.8235778808594	-854.5654296875002	-300.0433654785157	646.7744750976564	-583.9406738281251	
778	3.885	-168.8292694091797	1340.510864257813	-773.8988037109377	-171.4380645751953	1334.922729492188	-633.9225463867189	-221.4722442626954	1208.164916992188	-696.2615356445314	-392.5923156738282	988.7912597656252	-709.4016723632814	-110.6744079589844	1113.14404296875	-699.2188110351564	-139.8190460205078	1193.90283203125	-826.2147216796877	-24.94521522521973	1156.759887695313	-883.5323486328127	-0.2225393652915955	1146.5419921875	-842.3569946289065	40.0399284362793	1147.364990234375	-887.4945068359377	108.9260177612305	1108.862426757813	-919.834167480469	101.7074356079102	1051.900512695313	-905.5752563476565	347.9326171875001	1127.85498046875	-838.862731933594	355.6939697265626	1077.936645507813	-880.3208618164065	421.2324218750001	1145.551879882813	-843.2283325195315	-136.2960357666016	1186.142211914063	-586.6265869140626	-34.45053863525391	1114.176513671875	-478.8177185058595	-5.883111476898194	1139.06103515625	-511.8696289062501	33.25260543823243	1103.76025390625	-480.7707824707032	110.0396347045899	1088.090209960938	-493.7424316406251	96.602897644043	1035.009887695313	-508.0831298828126	345.2901306152344	1124.801391601563	-571.7247314453126	363.7754821777344	1077.889038085938	-524.2482910156251	429.5311279296876	1139.39013671875	-560.4507446289064	-390.1500244140626	742.9334106445314	-834.713317871094	-366.3327941894532	745.4103393554689	-634.0599975585939	-476.7808837890626	879.4708251953127	-722.1636352539064	-505.6972045898439	857.561462402344	-751.5009155273439	-497.4232177734376	853.693054199219	-691.0534057617189	-476.3480529785157	520.4836425781251	-929.063171386719	-432.178924560547	446.4971313476564	-936.7178344726565	-389.8436279296876	447.3194274902345	-916.638610839844	-457.1617736816407	389.622772216797	-934.8352050781252	-468.780731201172	311.7960205078126	-924.0966796875002	-580.1307983398439	230.7577819824219	-895.6876220703127	-623.9840087890626	289.7163391113282	-956.2563476562502	-627.6912841796876	253.9461822509766	-932.193298339844	-707.6790161132814	253.6807403564454	-899.6793212890627	-837.8596801757815	326.8727416992188	-933.6738281250002	-829.2442626953127	309.9330749511719	-849.4573364257815	-878.0398559570315	388.2498168945314	-884.0344238281252	-906.8270263671877	174.9475555419922	-901.6456298828127	-929.2604980468752	217.6805725097657	-952.7104492187502	-377.4208068847657	621.9912109375001	-551.9649047851564	-313.0655822753907	618.1451416015626	-565.9512939453126	-267.9618530273438	548.3620605468751	-570.4309692382814	-184.9022674560547	427.8389282226564	-621.2623291015626	-204.7680969238282	271.9747619628907	-710.5897216796876	-284.3288574218751	214.3606109619141	-656.9981689453126	-256.5973815917969	200.1450500488282	-695.9064331054689	-289.3860778808594	182.910888671875	-741.4248657226564	-378.6628723144532	122.7638473510742	-696.2971191406251	-363.8941955566407	136.0302276611328	-773.6737060546877	-457.1395263671876	106.9261474609375	-753.5036010742189	-257.1385803222657	58.16693115234376	-782.5964965820315	-248.6403808593751	52.61819458007814	-740.1335449218751	-292.3356018066407	46.07118606567384	-682.7694091796876	-40.63097000122071	1377.156860351563	-631.5989379882814	-905.1942138671877	176.7674255371094	-854.7324829101565	-299.9161987304688	646.2397460937501	-584.3020629882814	
779	3.89	-168.4066925048828	1339.455078125	-773.9747314453127	-171.2204284667969	1333.850830078125	-634.0368041992189	-221.3707885742188	1207.20068359375	-696.2248535156251	-392.3803710937501	987.8506469726565	-709.3566284179689	-110.6353225708008	1112.0556640625	-699.0432739257814	-139.7371520996094	1192.889526367188	-826.3132934570315	-24.69754219055176	1155.792602539063	-883.4063110351565	-0.01080678589642048	1145.477294921875	-842.341491699219	40.29905700683594	1146.305541992188	-887.303405761719	109.1084899902344	1107.96826171875	-919.6707153320315	102.0104904174805	1051.076293945313	-905.420837402344	348.2324829101563	1126.984741210938	-838.7138671875002	355.8040466308594	1077.215576171875	-880.167419433594	421.6118164062501	1144.740844726563	-843.0582275390627	-136.1067199707032	1185.523193359375	-586.8945922851564	-34.28020477294923	1113.311157226563	-478.7805786132814	-5.761352539062501	1138.126586914063	-511.6134033203126	33.51781463623048	1102.8427734375	-480.6702880859376	110.3816299438477	1087.30517578125	-493.0805969238282	96.97406768798831	1033.97021484375	-506.962127685547	345.5291137695313	1124.01806640625	-571.6063842773439	364.1058959960938	1076.965698242188	-523.8577270507814	429.2091369628907	1138.693969726563	-561.2138061523439	-390.0542297363282	742.1020507812501	-834.6602783203127	-366.3167724609376	744.4140625000001	-634.0417480468751	-476.6905822753907	878.6937255859377	-722.0946044921876	-505.5043945312501	856.3794555664065	-751.2352294921876	-497.9371032714845	852.728698730469	-691.0986938476564	-476.3697204589845	519.6746215820314	-929.1976318359377	-432.5220031738282	445.8385009765626	-936.6380615234377	-389.9609680175782	446.3733825683595	-916.713073730469	-457.3034973144532	388.8726806640626	-934.9976806640627	-468.8149719238282	310.8807067871094	-924.293395996094	-580.4043579101564	230.2759704589844	-895.8349609375002	-624.2055664062501	289.0791320800782	-956.4797363281252	-627.8040161132814	253.3194885253907	-932.3687133789065	-707.9663085937501	253.2149200439454	-900.0728149414065	-837.8775634765627	326.5862426757813	-933.987243652344	-829.4244384765627	309.6296386718751	-849.7388916015627	-878.1079101562502	388.0449218750001	-884.342956542969	-907.197692871094	174.7342834472657	-901.9888305664065	-929.5510864257815	217.5207061767579	-953.0576782226565	-377.2265930175782	621.2753295898439	-552.1707153320314	-312.8356628417969	617.4444580078126	-566.1987915039064	-267.5856323242188	548.0499267578126	-570.9735717773439	-184.5697937011719	427.3957519531251	-621.1004028320314	-204.5647125244141	271.8525695800782	-711.0797119140626	-284.1021118164063	214.3976135253907	-657.3946533203126	-256.4544372558594	200.0945129394532	-696.1888427734376	-289.3686828613282	182.7870330810547	-741.7204589843751	-378.5988769531251	122.7351913452149	-696.4003295898439	-363.9916992187501	136.0213317871094	-773.7293090820315	-457.1443786621095	106.8297271728516	-753.5089721679689	-257.0939941406251	58.08645629882814	-782.6072387695315	-248.8298950195313	52.95376205444337	-739.2562255859376	-292.4118957519532	46.21484756469727	-682.7749023437501	-40.38188934326173	1376.085571289063	-631.6202392578126	-905.773620605469	176.6352844238282	-854.972106933594	-299.8126831054688	645.8017578125001	-584.7336425781251	
780	3.895	-168.1006011962891	1338.384887695313	-774.1638793945315	-170.8765563964844	1332.884399414063	-634.1271362304689	-221.0957336425782	1206.17333984375	-696.3388061523439	-392.3152770996095	986.9318847656252	-709.3196411132814	-110.5027465820313	1110.95263671875	-699.1274414062501	-139.6320343017578	1191.811889648438	-826.3408203125002	-24.46619987487794	1154.817504882813	-883.3071289062502	0.2304456681013108	1144.546752929688	-842.205749511719	40.54104232788087	1145.424072265625	-887.242858886719	109.3721694946289	1107.06103515625	-919.4932250976565	102.2298583984375	1050.253784179688	-905.3025512695315	348.5603942871094	1126.058959960938	-838.567565917969	356.0426635742188	1076.380004882813	-880.0529785156252	421.8080444335939	1143.93310546875	-842.8826293945315	-135.8774108886719	1184.205200195313	-586.6299438476564	-34.02648925781251	1112.458251953125	-478.728485107422	-5.554460525512696	1137.23876953125	-511.5843505859376	33.67449188232423	1101.9990234375	-480.5381469726564	110.6986999511719	1086.497924804688	-492.7939758300782	97.22219085693362	1033.193115234375	-507.0581359863282	345.5907592773438	1123.150756835938	-571.6701660156251	364.2935791015626	1076.111694335938	-523.8758544921876	429.9266357421876	1137.727416992188	-560.6556396484376	-390.050018310547	741.4262084960939	-834.6172485351565	-366.4563293457032	744.0469970703126	-634.1653442382814	-476.911834716797	877.7949829101565	-722.0207519531251	-505.569549560547	855.4523925781252	-751.2810668945314	-497.9280395507814	851.8359985351565	-691.0227050781251	-476.4032592773439	518.9148559570314	-929.279235839844	-432.5440673828126	445.0492553710939	-936.8587036132815	-389.8359680175782	445.5223388671876	-916.9019165039065	-457.3767089843751	388.0698852539064	-935.113464355469	-468.8393554687501	309.9606018066407	-924.4555664062502	-580.8467407226564	229.4888305664063	-896.189636230469	-624.4215087890626	288.5155639648438	-956.7539062500002	-628.0285034179689	252.7665557861329	-932.6446533203127	-708.1824951171876	252.9495086669922	-900.2211914062502	-838.0012207031252	326.3518371582032	-934.323913574219	-829.5830078125002	309.2993469238282	-850.048278808594	-878.0888671875002	387.798797607422	-884.703796386719	-907.6192626953127	174.4926910400391	-902.3335571289065	-929.5920410156252	217.1155090332032	-953.5268554687502	-376.9744567871094	620.6388549804689	-552.3005981445314	-312.6422424316407	616.9405517578126	-566.6220092773439	-267.2177124023438	547.5763549804689	-571.3865966796876	-184.85205078125	426.4505920410157	-626.8200073242189	-204.2731018066407	271.8006591796876	-711.4082641601564	-283.7452087402344	214.3245391845704	-657.8132934570314	-256.2319030761719	199.9643554687501	-696.4874877929689	-289.2614135742188	182.6489410400391	-741.9951782226564	-378.4881591796876	122.7209396362305	-696.4245605468751	-363.9349060058594	135.9183959960938	-773.8018188476565	-457.1472778320314	106.8274765014649	-753.5070190429689	-257.1167907714844	58.02075195312501	-782.664245605469	-248.8399505615235	52.99959945678712	-739.2179565429689	-292.3093566894532	46.10816192626954	-682.7238159179689	-40.02898406982423	1374.852294921875	-631.6782226562501	-906.048522949219	176.2751617431641	-855.3684082031252	-299.6099243164063	645.2899780273439	-585.1606445312501	
